<svg width="927" height="300" viewBox="0 0 927 300" fill="none" xmlns="http://www.w3.org/2000/svg">
<g opacity="0.5" clip-path="url(#clip0_1_365)">
<g opacity="0.57">
<path d="M162.917 320.686C157.517 320.686 153.103 316.746 153.103 311.914V134.02C153.103 129.159 157.488 125.248 162.917 125.248C168.318 125.248 172.731 129.159 172.731 134.02V311.914C172.731 316.775 168.347 320.686 162.917 320.686Z" fill="url(#paint0_linear_1_365)"/>
<path d="M213.323 320.686C207.893 320.686 203.509 316.746 203.509 311.914V93.5806C203.509 88.7198 207.893 84.8081 213.323 84.8081C218.752 84.8081 223.136 88.7198 223.136 93.5806V311.914C223.136 316.775 218.752 320.686 213.323 320.686Z" fill="url(#paint1_linear_1_365)"/>
<path d="M263.757 320.686C258.356 320.686 253.943 316.746 253.943 311.914V43.0454C253.943 38.1846 258.327 34.2729 263.757 34.2729C269.187 34.2729 273.571 38.2134 273.571 43.0454V311.914C273.571 316.775 269.187 320.686 263.757 320.686Z" fill="url(#paint2_linear_1_365)"/>
<path d="M314.192 320.686C308.791 320.686 304.378 316.746 304.378 311.914V9.33617C304.378 4.47537 308.762 0.563721 314.192 0.563721C319.592 0.563721 324.006 4.47537 324.006 9.33617V311.885C324.006 316.746 319.621 320.658 314.192 320.658V320.686Z" fill="url(#paint3_linear_1_365)"/>
<path d="M364.597 320.686C359.167 320.686 354.783 316.746 354.783 311.914V26.1908C354.783 21.33 359.167 17.4183 364.597 17.4183C369.997 17.4183 374.382 21.3587 374.382 26.1908V311.914C374.382 316.775 369.997 320.686 364.597 320.686Z" fill="url(#paint4_linear_1_365)"/>
<path d="M415.031 320.686C409.601 320.686 405.217 316.746 405.217 311.914V43.0454C405.217 38.1846 409.601 34.2729 415.031 34.2729C420.46 34.2729 424.844 38.2134 424.844 43.0454V311.914C424.844 316.775 420.46 320.686 415.031 320.686Z" fill="url(#paint5_linear_1_365)"/>
<path d="M465.465 320.686C460.065 320.686 455.651 316.746 455.651 311.914V93.5804C455.651 88.7196 460.035 84.808 465.465 84.808C470.866 84.808 475.279 88.7196 475.279 93.5804V311.914C475.279 316.775 470.895 320.686 465.465 320.686Z" fill="url(#paint6_linear_1_365)"/>
<path d="M515.87 320.686C510.47 320.686 506.056 316.746 506.056 311.914V93.5804C506.056 88.7196 510.441 84.808 515.87 84.808C521.3 84.808 525.684 88.7196 525.684 93.5804V311.914C525.684 316.775 521.3 320.686 515.87 320.686Z" fill="url(#paint7_linear_1_365)"/>
<path d="M566.305 320.686C560.904 320.686 556.491 316.746 556.491 311.914V93.5806C556.491 88.7198 560.875 84.8081 566.305 84.8081C571.735 84.8081 576.119 88.7198 576.119 93.5806V311.914C576.119 316.775 571.735 320.686 566.305 320.686Z" fill="url(#paint8_linear_1_365)"/>
<path d="M616.739 320.686C611.31 320.686 606.925 316.746 606.925 311.914V46.4106C606.925 41.5498 611.31 37.6382 616.739 37.6382C622.14 37.6382 626.553 41.5498 626.553 46.4106V311.914C626.553 316.775 622.169 320.686 616.739 320.686Z" fill="url(#paint9_linear_1_365)"/>
<path d="M667.145 320.686C661.744 320.686 657.331 316.746 657.331 311.914V93.5806C657.331 88.7198 661.715 84.8081 667.145 84.8081C672.574 84.8081 676.959 88.7198 676.959 93.5806V311.914C676.959 316.775 672.574 320.686 667.145 320.686Z" fill="url(#paint10_linear_1_365)"/>
<path d="M717.579 320.686C712.15 320.686 707.765 316.746 707.765 311.914V164.364C707.765 159.503 712.15 155.592 717.579 155.592C722.98 155.592 727.393 159.503 727.393 164.364V311.914C727.393 316.775 723.009 320.686 717.579 320.686Z" fill="url(#paint11_linear_1_365)"/>
</g>
<path d="M8.88481 346.601C3.97784 346.601 0 343.035 0 338.663V141.067C0 136.666 3.97784 133.1 8.88481 133.1C13.7918 133.1 17.7406 136.666 17.7406 141.067V338.663C17.7406 343.063 13.7627 346.601 8.88481 346.601Z" fill="url(#paint12_linear_1_365)"/>
<path d="M54.4993 346.601C49.5924 346.601 45.6436 343.035 45.6436 338.663V205.12C45.6436 200.72 49.5924 197.182 54.4993 197.182C59.4063 197.182 63.3841 200.748 63.3841 205.12V338.663C63.3841 343.063 59.4063 346.601 54.4993 346.601Z" fill="url(#paint13_linear_1_365)"/>
<path d="M100.143 346.601C95.2359 346.601 91.2581 343.035 91.2581 338.663V238.657C91.2581 234.256 95.2359 230.718 100.143 230.718C105.05 230.718 108.999 234.285 108.999 238.657V338.663C108.999 343.063 105.05 346.601 100.143 346.601Z" fill="url(#paint14_linear_1_365)"/>
<path d="M145.786 346.601C140.879 346.601 136.931 343.035 136.931 338.663V269.173C136.931 264.801 140.908 261.235 145.786 261.235C150.693 261.235 154.671 264.801 154.671 269.173V338.663C154.671 343.063 150.693 346.601 145.786 346.601Z" fill="url(#paint15_linear_1_365)"/>
<path d="M191.43 346.601C186.523 346.601 182.545 343.035 182.545 338.663V177.681C182.545 173.28 186.523 169.743 191.43 169.743C196.337 169.743 200.315 173.309 200.315 177.681V338.663C200.315 343.063 196.337 346.601 191.43 346.601Z" fill="url(#paint16_linear_1_365)"/>
<path d="M237.073 346.601C232.167 346.601 228.189 343.035 228.189 338.663V141.067C228.189 136.666 232.167 133.1 237.073 133.1C241.98 133.1 245.929 136.666 245.929 141.067V338.663C245.929 343.063 241.951 346.601 237.073 346.601Z" fill="url(#paint17_linear_1_365)"/>
<path d="M282.717 346.601C277.81 346.601 273.861 343.035 273.861 338.663V95.3063C273.861 90.9057 277.839 87.3679 282.717 87.3679C287.624 87.3679 291.602 90.9344 291.602 95.3063V338.634C291.602 343.035 287.624 346.572 282.717 346.572V346.601Z" fill="url(#paint18_linear_1_365)"/>
<path d="M328.361 346.601C323.454 346.601 319.476 343.035 319.476 338.663V64.8184C319.476 60.4465 323.454 56.88 328.361 56.88C333.267 56.88 337.245 60.4465 337.245 64.8184V338.663C337.245 343.063 333.267 346.601 328.361 346.601Z" fill="url(#paint19_linear_1_365)"/>
<path d="M374.004 346.601C369.097 346.601 365.119 343.035 365.119 338.663V80.0623C365.119 75.6617 369.097 72.0952 374.004 72.0952C378.911 72.0952 382.86 75.6617 382.86 80.0623V338.663C382.86 343.063 378.882 346.601 374.004 346.601Z" fill="url(#paint20_linear_1_365)"/>
<path d="M419.619 346.601C414.712 346.601 410.763 343.035 410.763 338.663V95.3063C410.763 90.9057 414.741 87.3679 419.619 87.3679C424.526 87.3679 428.503 90.9344 428.503 95.3063V338.634C428.503 343.035 424.526 346.572 419.619 346.572V346.601Z" fill="url(#paint21_linear_1_365)"/>
<path d="M465.262 346.601C460.355 346.601 456.377 343.035 456.377 338.663V141.067C456.377 136.666 460.355 133.1 465.262 133.1C470.169 133.1 474.118 136.666 474.118 141.067V338.663C474.118 343.063 470.14 346.601 465.262 346.601Z" fill="url(#paint22_linear_1_365)"/>
<path d="M510.906 346.601C505.999 346.601 502.05 343.035 502.05 338.663V141.067C502.05 136.666 506.028 133.1 510.906 133.1C515.813 133.1 519.791 136.666 519.791 141.067V338.663C519.791 343.063 515.813 346.601 510.906 346.601Z" fill="url(#paint23_linear_1_365)"/>
<path d="M556.549 346.601C551.642 346.601 547.664 343.035 547.664 338.663V141.067C547.664 136.666 551.642 133.1 556.549 133.1C561.456 133.1 565.434 136.666 565.434 141.067V338.663C565.434 343.063 561.456 346.601 556.549 346.601Z" fill="url(#paint24_linear_1_365)"/>
<path d="M602.192 346.601C597.285 346.601 593.308 343.035 593.308 338.663V98.355C593.308 93.9544 597.285 90.4166 602.192 90.4166C607.099 90.4166 611.048 93.9831 611.048 98.355V338.634C611.048 343.035 607.07 346.572 602.192 346.572V346.601Z" fill="url(#paint25_linear_1_365)"/>
<path d="M647.807 346.601C642.9 346.601 638.951 343.035 638.951 338.663V141.067C638.951 136.666 642.929 133.1 647.807 133.1C652.714 133.1 656.692 136.666 656.692 141.067V338.663C656.692 343.063 652.714 346.601 647.807 346.601Z" fill="url(#paint26_linear_1_365)"/>
<path d="M693.451 346.601C688.544 346.601 684.566 343.035 684.566 338.663V205.12C684.566 200.72 688.544 197.182 693.451 197.182C698.358 197.182 702.336 200.748 702.336 205.12V338.663C702.336 343.063 698.358 346.601 693.451 346.601Z" fill="url(#paint27_linear_1_365)"/>
<path d="M739.095 346.601C734.188 346.601 730.21 343.035 730.21 338.663V302.71C730.21 298.309 734.188 294.772 739.095 294.772C744.002 294.772 747.98 298.338 747.98 302.71V338.663C747.98 343.063 744.002 346.601 739.095 346.601Z" fill="url(#paint28_linear_1_365)"/>
<path d="M784.738 346.601C779.831 346.601 775.882 343.035 775.882 338.663V269.173C775.882 264.801 779.831 261.235 784.738 261.235C789.645 261.235 793.622 264.801 793.622 269.173V338.663C793.622 343.063 789.645 346.601 784.738 346.601Z" fill="url(#paint29_linear_1_365)"/>
<path d="M830.381 346.601C825.474 346.601 821.496 343.035 821.496 338.663V177.681C821.496 173.28 825.474 169.743 830.381 169.743C835.288 169.743 839.237 173.309 839.237 177.681V338.663C839.237 343.063 835.288 346.601 830.381 346.601Z" fill="url(#paint30_linear_1_365)"/>
<path d="M921.668 346.601C916.761 346.601 912.783 343.035 912.783 338.663V134.969C912.783 130.569 916.761 127.031 921.668 127.031C926.575 127.031 930.553 130.597 930.553 134.969V338.663C930.553 343.063 926.575 346.601 921.668 346.601Z" fill="url(#paint31_linear_1_365)"/>
</g>
<defs>
<linearGradient id="paint0_linear_1_365" x1="162.888" y1="127.347" x2="162.888" y2="319.852" gradientUnits="userSpaceOnUse">
<stop stop-color="#A4B0F0"/>
<stop offset="0.54" stop-color="#7881CA"/>
<stop offset="1" stop-color="#00A2C2"/>
</linearGradient>
<linearGradient id="paint1_linear_1_365" x1="213.323" y1="87.3392" x2="213.323" y2="319.68" gradientUnits="userSpaceOnUse">
<stop stop-color="#A4B0F0"/>
<stop offset="0.54" stop-color="#7881CA"/>
<stop offset="1" stop-color="#00A2C2"/>
</linearGradient>
<linearGradient id="paint2_linear_1_365" x1="263.757" y1="37.3217" x2="263.757" y2="319.45" gradientUnits="userSpaceOnUse">
<stop stop-color="#A4B0F0"/>
<stop offset="0.54" stop-color="#7881CA"/>
<stop offset="1" stop-color="#00A2C2"/>
</linearGradient>
<linearGradient id="paint3_linear_1_365" x1="314.192" y1="3.98642" x2="314.192" y2="319.306" gradientUnits="userSpaceOnUse">
<stop stop-color="#A4B0F0"/>
<stop offset="0.54" stop-color="#7881CA"/>
<stop offset="1" stop-color="#00A2C2"/>
</linearGradient>
<linearGradient id="paint4_linear_1_365" x1="364.597" y1="20.6685" x2="364.597" y2="319.392" gradientUnits="userSpaceOnUse">
<stop stop-color="#A4B0F0"/>
<stop offset="0.54" stop-color="#7881CA"/>
<stop offset="1" stop-color="#00A2C2"/>
</linearGradient>
<linearGradient id="paint5_linear_1_365" x1="415.031" y1="37.3217" x2="415.031" y2="319.45" gradientUnits="userSpaceOnUse">
<stop stop-color="#A4B0F0"/>
<stop offset="0.54" stop-color="#7881CA"/>
<stop offset="1" stop-color="#00A2C2"/>
</linearGradient>
<linearGradient id="paint6_linear_1_365" x1="465.465" y1="87.3391" x2="465.465" y2="319.68" gradientUnits="userSpaceOnUse">
<stop stop-color="#A4B0F0"/>
<stop offset="0.54" stop-color="#7881CA"/>
<stop offset="1" stop-color="#00A2C2"/>
</linearGradient>
<linearGradient id="paint7_linear_1_365" x1="515.87" y1="87.3391" x2="515.87" y2="319.68" gradientUnits="userSpaceOnUse">
<stop stop-color="#A4B0F0"/>
<stop offset="0.54" stop-color="#7881CA"/>
<stop offset="1" stop-color="#00A2C2"/>
</linearGradient>
<linearGradient id="paint8_linear_1_365" x1="566.305" y1="87.3392" x2="566.305" y2="319.68" gradientUnits="userSpaceOnUse">
<stop stop-color="#A4B0F0"/>
<stop offset="0.54" stop-color="#7881CA"/>
<stop offset="1" stop-color="#00A2C2"/>
</linearGradient>
<linearGradient id="paint9_linear_1_365" x1="616.739" y1="40.6582" x2="616.739" y2="319.478" gradientUnits="userSpaceOnUse">
<stop stop-color="#A4B0F0"/>
<stop offset="0.54" stop-color="#7881CA"/>
<stop offset="1" stop-color="#00A2C2"/>
</linearGradient>
<linearGradient id="paint10_linear_1_365" x1="667.174" y1="87.3392" x2="667.174" y2="319.68" gradientUnits="userSpaceOnUse">
<stop stop-color="#A4B0F0"/>
<stop offset="0.54" stop-color="#7881CA"/>
<stop offset="1" stop-color="#00A2C2"/>
</linearGradient>
<linearGradient id="paint11_linear_1_365" x1="717.579" y1="157.346" x2="717.579" y2="319.967" gradientUnits="userSpaceOnUse">
<stop stop-color="#A4B0F0"/>
<stop offset="0.54" stop-color="#7881CA"/>
<stop offset="1" stop-color="#00A2C2"/>
</linearGradient>
<linearGradient id="paint12_linear_1_365" x1="8.88481" y1="135.401" x2="8.88481" y2="345.681" gradientUnits="userSpaceOnUse">
<stop stop-color="#A4B0F0"/>
<stop offset="0.54" stop-color="#7881CA"/>
<stop offset="1" stop-color="#00A2C2"/>
</linearGradient>
<linearGradient id="paint13_linear_1_365" x1="54.5284" y1="198.764" x2="54.5284" y2="345.968" gradientUnits="userSpaceOnUse">
<stop stop-color="#A4B0F0"/>
<stop offset="0.54" stop-color="#7881CA"/>
<stop offset="1" stop-color="#00A2C2"/>
</linearGradient>
<linearGradient id="paint14_linear_1_365" x1="100.143" y1="231.955" x2="100.143" y2="346.112" gradientUnits="userSpaceOnUse">
<stop stop-color="#A4B0F0"/>
<stop offset="0.54" stop-color="#7881CA"/>
<stop offset="1" stop-color="#00A2C2"/>
</linearGradient>
<linearGradient id="paint15_linear_1_365" x1="145.786" y1="262.127" x2="145.786" y2="346.227" gradientUnits="userSpaceOnUse">
<stop stop-color="#A4B0F0"/>
<stop offset="0.54" stop-color="#7881CA"/>
<stop offset="1" stop-color="#00A2C2"/>
</linearGradient>
<linearGradient id="paint16_linear_1_365" x1="191.43" y1="171.612" x2="191.43" y2="345.853" gradientUnits="userSpaceOnUse">
<stop stop-color="#A4B0F0"/>
<stop offset="0.54" stop-color="#7881CA"/>
<stop offset="1" stop-color="#00A2C2"/>
</linearGradient>
<linearGradient id="paint17_linear_1_365" x1="237.073" y1="135.401" x2="237.073" y2="345.681" gradientUnits="userSpaceOnUse">
<stop stop-color="#A4B0F0"/>
<stop offset="0.54" stop-color="#7881CA"/>
<stop offset="1" stop-color="#00A2C2"/>
</linearGradient>
<linearGradient id="paint18_linear_1_365" x1="282.717" y1="90.1578" x2="282.717" y2="345.479" gradientUnits="userSpaceOnUse">
<stop stop-color="#A4B0F0"/>
<stop offset="0.54" stop-color="#7881CA"/>
<stop offset="1" stop-color="#00A2C2"/>
</linearGradient>
<linearGradient id="paint19_linear_1_365" x1="328.361" y1="59.9863" x2="328.361" y2="345.364" gradientUnits="userSpaceOnUse">
<stop stop-color="#A4B0F0"/>
<stop offset="0.54" stop-color="#7881CA"/>
<stop offset="1" stop-color="#00A2C2"/>
</linearGradient>
<linearGradient id="paint20_linear_1_365" x1="373.975" y1="75.0577" x2="373.975" y2="345.422" gradientUnits="userSpaceOnUse">
<stop stop-color="#A4B0F0"/>
<stop offset="0.54" stop-color="#7881CA"/>
<stop offset="1" stop-color="#00A2C2"/>
</linearGradient>
<linearGradient id="paint21_linear_1_365" x1="419.619" y1="90.1578" x2="419.619" y2="345.479" gradientUnits="userSpaceOnUse">
<stop stop-color="#A4B0F0"/>
<stop offset="0.54" stop-color="#7881CA"/>
<stop offset="1" stop-color="#00A2C2"/>
</linearGradient>
<linearGradient id="paint22_linear_1_365" x1="465.262" y1="135.401" x2="465.262" y2="345.681" gradientUnits="userSpaceOnUse">
<stop stop-color="#A4B0F0"/>
<stop offset="0.54" stop-color="#7881CA"/>
<stop offset="1" stop-color="#00A2C2"/>
</linearGradient>
<linearGradient id="paint23_linear_1_365" x1="510.906" y1="135.401" x2="510.906" y2="345.681" gradientUnits="userSpaceOnUse">
<stop stop-color="#A4B0F0"/>
<stop offset="0.54" stop-color="#7881CA"/>
<stop offset="1" stop-color="#00A2C2"/>
</linearGradient>
<linearGradient id="paint24_linear_1_365" x1="556.549" y1="135.401" x2="556.549" y2="345.681" gradientUnits="userSpaceOnUse">
<stop stop-color="#A4B0F0"/>
<stop offset="0.54" stop-color="#7881CA"/>
<stop offset="1" stop-color="#00A2C2"/>
</linearGradient>
<linearGradient id="paint25_linear_1_365" x1="602.192" y1="93.1778" x2="602.192" y2="345.508" gradientUnits="userSpaceOnUse">
<stop stop-color="#A4B0F0"/>
<stop offset="0.54" stop-color="#7881CA"/>
<stop offset="1" stop-color="#00A2C2"/>
</linearGradient>
<linearGradient id="paint26_linear_1_365" x1="647.836" y1="135.401" x2="647.836" y2="345.681" gradientUnits="userSpaceOnUse">
<stop stop-color="#A4B0F0"/>
<stop offset="0.54" stop-color="#7881CA"/>
<stop offset="1" stop-color="#00A2C2"/>
</linearGradient>
<linearGradient id="paint27_linear_1_365" x1="693.451" y1="198.764" x2="693.451" y2="345.968" gradientUnits="userSpaceOnUse">
<stop stop-color="#A4B0F0"/>
<stop offset="0.54" stop-color="#7881CA"/>
<stop offset="1" stop-color="#00A2C2"/>
</linearGradient>
<linearGradient id="paint28_linear_1_365" x1="739.095" y1="295.318" x2="739.095" y2="346.371" gradientUnits="userSpaceOnUse">
<stop stop-color="#A4B0F0"/>
<stop offset="0.54" stop-color="#7881CA"/>
<stop offset="1" stop-color="#00A2C2"/>
</linearGradient>
<linearGradient id="paint29_linear_1_365" x1="784.738" y1="262.127" x2="784.738" y2="346.227" gradientUnits="userSpaceOnUse">
<stop stop-color="#A4B0F0"/>
<stop offset="0.54" stop-color="#7881CA"/>
<stop offset="1" stop-color="#00A2C2"/>
</linearGradient>
<linearGradient id="paint30_linear_1_365" x1="830.381" y1="171.612" x2="830.381" y2="345.853" gradientUnits="userSpaceOnUse">
<stop stop-color="#A4B0F0"/>
<stop offset="0.54" stop-color="#7881CA"/>
<stop offset="1" stop-color="#00A2C2"/>
</linearGradient>
<linearGradient id="paint31_linear_1_365" x1="921.668" y1="129.361" x2="921.668" y2="345.652" gradientUnits="userSpaceOnUse">
<stop stop-color="#A4B0F0"/>
<stop offset="0.54" stop-color="#7881CA"/>
<stop offset="1" stop-color="#00A2C2"/>
</linearGradient>
<clipPath id="clip0_1_365">
<rect width="1250" height="346.037" fill="white" transform="translate(0 0.563721)"/>
</clipPath>
</defs>
</svg>
