<svg width="74" height="92" viewBox="0 0 74 92" fill="none" xmlns="http://www.w3.org/2000/svg">
<g clip-path="url(#clip0_1_327)">
<path d="M73.7805 50.7189C73.2311 52.4227 71.7254 53.64 70.0347 54.7566C68.0083 56.0944 65.7153 57.284 64.4878 58.9844C62.2143 62.1326 62.6775 68.1498 59.5524 70.4409C57.8513 71.6896 55.4123 71.5587 52.9446 71.3907C51.3792 71.2841 49.8 71.1625 48.3908 71.3699C47.984 71.4289 47.592 71.5158 47.2173 71.6386C43.6313 72.8119 40.5142 77.9744 36.5397 77.9744C35.8443 77.9744 35.1754 77.8169 34.526 77.5493C31.4606 76.2903 28.8205 72.6069 25.862 71.6386L25.8539 71.6363C25.362 71.4741 25.0712 70.9656 25.1781 70.456L39.62 1.81969C39.7809 1.05406 40.682 0.725112 41.2935 1.20696C42.8359 2.42315 44.3221 3.88143 45.8668 4.78489C46.4415 5.12079 46.7288 5.79839 46.5909 6.45397L38.3764 45.3908C38.2913 45.7938 38.4809 46.205 38.8407 46.3996C39.5177 46.7656 40.2108 47.0992 40.9176 47.4004C42.1268 47.917 43.375 48.3374 44.6496 48.6594C46.6691 49.1702 48.7529 49.432 50.8447 49.432C53.2297 49.432 55.5698 49.0961 57.8076 48.4544C62.3787 47.1444 66.521 44.5614 69.7393 40.9684C70.3036 40.3383 71.338 40.5654 71.5921 41.375C71.8219 42.1105 72.1081 42.8518 72.4012 43.592C73.392 46.0927 74.4712 48.5749 73.7805 50.7189Z" fill="#2C187C"/>
<path d="M37.3854 0.0949791L22.4965 70.3135C22.4218 70.3297 22.3448 70.339 22.2666 70.3413C21.6011 70.361 20.931 70.4073 20.2713 70.4525C17.8415 70.6181 15.5462 70.7756 14.0693 69.6926C12.5682 68.5911 12.0062 66.3278 11.4131 63.9314C10.9269 61.9727 10.4258 59.9492 9.33503 58.4388C8.26037 56.9516 6.51907 55.8593 4.83639 54.8029C2.73879 53.4871 0.758418 52.2443 0.174537 50.4327C-0.376012 48.7243 0.472224 46.5965 1.36988 44.3448C2.13077 42.436 2.91809 40.4623 2.91809 38.5245C2.91809 36.5866 2.13077 34.6118 1.36988 32.7029C1.06415 31.9361 0.775658 31.2111 0.53544 30.4929C-0.0312007 28.7926 -0.14269 27.5972 0.173387 26.6162C0.413606 25.8702 0.91818 25.1602 1.71355 24.4444C2.59052 23.6544 3.73184 22.9386 4.83639 22.246C6.52022 21.1896 8.26037 20.0962 9.33503 18.609C10.4258 17.0997 10.9269 15.075 11.4119 13.1175C12.0062 10.7211 12.5671 8.45777 14.0681 7.35625C15.0141 6.66244 16.2945 6.47711 17.7323 6.47711C18.5392 6.47711 19.3966 6.53618 20.2702 6.59526C22.2804 6.73309 24.3596 6.87556 26.1457 6.29063C27.848 5.73349 29.3962 4.41769 30.8938 3.14589C32.7983 1.52777 34.5971 0 36.5395 0C36.8165 0 37.097 0.0312736 37.3854 0.0949791Z" fill="#FF0871"/>
<path d="M47.0507 74.6374C47.6254 74.4497 48.2127 74.8945 48.2127 75.5026V90.4989C48.2127 91.8332 46.6116 92.5016 45.676 91.5576L37.3741 83.1913C36.7925 82.6063 35.8524 82.6063 35.2719 83.1913L26.97 91.5576C26.0333 92.5016 24.4333 91.8332 24.4333 90.4989V75.4794C24.4333 74.8702 25.0184 74.4335 25.5954 74.613C25.6252 74.6223 25.654 74.6316 25.6839 74.6408C29.2699 75.8142 32.387 80.9766 36.3615 80.9766C40.3361 80.9766 43.4532 75.8142 47.0392 74.6408C47.0426 74.6397 47.0472 74.6385 47.0507 74.6374Z" fill="#593FC3"/>
<path d="M71.7104 32.7029C71.3265 33.6643 70.9358 34.6454 70.6427 35.6311C66.5038 42.1985 59.2225 46.5571 50.9321 46.5571C47.5817 46.5571 44.3979 45.8459 41.5187 44.5649L49.5701 6.7076C49.554 6.7076 49.585 6.7076 49.5701 6.7076C50.6252 6.74235 51.7412 6.66822 52.8102 6.59525C55.2399 6.42845 57.5352 6.27209 59.0122 7.35508C60.5133 8.45545 61.0742 10.7187 61.6672 13.1152C62.1534 15.0739 62.6545 17.0985 63.7453 18.6078C63.843 18.7421 63.9453 18.8742 64.0533 19.0028C65.1349 20.2931 66.7141 21.2846 68.2451 22.2448C70.3415 23.5606 72.3219 24.8034 72.9058 26.6161C73.4563 28.3235 72.6092 30.4512 71.7116 32.7029H71.7104Z" fill="#FF0871"/>
</g>
<defs>
<clipPath id="clip0_1_327">
<rect width="74" height="92" fill="white"/>
</clipPath>
</defs>
</svg>
