<svg width="114" height="93" viewBox="0 0 114 93" fill="none" xmlns="http://www.w3.org/2000/svg">
<g clip-path="url(#clip0_1_507)">
<path d="M101.473 61.6285C100.298 62.7686 99.759 64.415 100.045 66.0615L101.919 76.9886C102.046 77.7491 101.6 78.1603 101.379 78.3191C101.188 78.4779 100.617 78.7939 99.95 78.4144L90.1079 73.2509C88.6485 72.4921 86.9026 72.4921 85.4415 73.2509L75.886 78.2874L75.0281 73.2192C74.9007 72.6174 75.1236 72.0157 75.5676 71.5727L84.7747 62.6098C86.2994 61.1521 86.8071 58.9992 86.1721 57.0033C85.5052 55.0091 83.823 53.5833 81.7269 53.2674L68.9962 51.4303C68.837 51.3986 68.7113 51.3668 68.584 51.3033L77.8849 49.9727C79.5051 49.7186 80.9025 48.7057 81.6314 47.2481L86.5524 37.3039C86.8708 36.6069 87.5058 36.5433 87.7588 36.5433C88.0453 36.5433 88.6485 36.6069 88.997 37.3039L93.918 47.2481C94.6486 48.7057 96.0443 49.7186 97.6645 49.9727L108.681 51.5557C109.442 51.6827 109.697 52.2527 109.792 52.5068C109.856 52.7274 109.981 53.361 109.442 53.8992L101.473 61.6285Z" fill="#593FC3"/>
<path d="M73.0279 69.0069C71.7277 70.2422 71.1564 72.0792 71.4412 73.8527L73.6311 86.5216C73.7585 87.2186 73.4736 87.9156 72.8704 88.3268C72.2991 88.7715 71.5685 88.8032 70.9017 88.4856L59.5047 82.4998C58.7105 82.0886 57.8225 81.8662 56.9646 81.8662C56.1067 81.8662 55.2187 82.0886 54.3927 82.4998L42.9957 88.4856C42.3606 88.8032 41.6301 88.7715 41.0269 88.3268C40.4556 87.9156 40.1707 87.2186 40.2981 86.4898L42.4562 73.8527C42.7745 72.0792 42.1696 70.2422 40.9013 69.0069L31.6624 60.0439C31.6305 60.0122 31.6004 59.9804 31.5719 59.947C31.5317 59.9018 31.4948 59.8567 31.4596 59.8082C31.4278 59.7631 31.3976 59.718 31.3675 59.6695C31.344 59.6311 31.3222 59.5926 31.3021 59.5525C31.2803 59.509 31.2586 59.4656 31.2401 59.4204C31.2234 59.3803 31.2083 59.3419 31.1966 59.3034C31.1899 59.285 31.1848 59.2666 31.1798 59.2483C31.1647 59.2081 31.1547 59.1647 31.1446 59.1212C31.1362 59.0878 31.1295 59.056 31.1245 59.0226C31.1212 59.0059 31.1178 58.9908 31.1161 58.9741C31.1094 58.9323 31.1044 58.8889 31.1011 58.8437C31.096 58.7936 31.0944 58.7451 31.0944 58.695C31.0944 58.5027 31.1245 58.3055 31.1865 58.1116C31.4077 57.4162 31.979 56.9398 32.7096 56.8462L45.4403 55.0092C47.2498 54.7551 48.7746 53.6151 49.5671 52.0003L50.7618 49.5916V49.5883L55.2824 40.4716C55.2991 40.4381 55.3175 40.4047 55.336 40.3729C55.3527 40.3412 55.3728 40.3111 55.3929 40.281C55.4147 40.2492 55.4365 40.2175 55.46 40.1857C55.4834 40.1556 55.5069 40.1255 55.532 40.0971C55.5571 40.0687 55.5823 40.0403 55.6091 40.0119C55.6342 39.9851 55.6627 39.9584 55.6895 39.9333C55.718 39.9082 55.7465 39.8832 55.7766 39.8598C55.8068 39.8364 55.837 39.813 55.8671 39.7929C55.9291 39.7494 55.9945 39.7093 56.0615 39.6742C56.0883 39.6608 56.1151 39.6475 56.1436 39.6341C56.1905 39.6124 56.2374 39.5923 56.286 39.5756C56.3128 39.5656 56.3396 39.5555 56.3664 39.5472C56.3748 39.5472 56.3815 39.5422 56.3899 39.5405C56.4133 39.5338 56.4368 39.5271 56.4603 39.5204C56.4954 39.5121 56.529 39.5037 56.5658 39.497C56.5993 39.4887 56.6328 39.4837 56.668 39.4803C56.7216 39.4703 56.7753 39.4653 56.8289 39.4619C56.8741 39.4586 56.9193 39.4569 56.9646 39.4569C57.0098 39.4569 57.0551 39.4586 57.1003 39.4619C57.1556 39.4653 57.2092 39.4703 57.2628 39.4803C57.2964 39.4837 57.3299 39.4887 57.3634 39.497C57.4002 39.5037 57.4337 39.5121 57.4689 39.5204C57.4924 39.5271 57.5158 39.5338 57.5393 39.5405C57.5477 39.5422 57.5544 39.5455 57.5628 39.5472C57.5896 39.5555 57.6164 39.5656 57.6432 39.5756C57.6918 39.5923 57.7387 39.6124 57.7856 39.6341C57.8141 39.6475 57.8409 39.6608 57.8677 39.6742C57.9347 39.7093 58.0001 39.7494 58.0621 39.7929C58.0922 39.813 58.1224 39.8364 58.1525 39.8598C58.1827 39.8832 58.2112 39.9082 58.2397 39.9333C58.2665 39.9584 58.295 39.9851 58.3201 40.0119C58.3469 40.0403 58.372 40.0687 58.3972 40.0971C58.4223 40.1255 58.4458 40.1556 58.4692 40.1857C58.4927 40.2175 58.5145 40.2492 58.5362 40.281C58.5563 40.3111 58.5765 40.3412 58.5932 40.3729C58.6116 40.4047 58.6301 40.4381 58.6468 40.4716L64.3302 52.0003C65.1244 53.6151 66.6793 54.7551 68.4571 55.0092L81.2196 56.8462C81.9183 56.9398 82.4897 57.4162 82.7125 58.1116C82.9337 58.8086 82.7745 59.5374 82.235 60.0439L73.0279 69.0069Z" fill="#2C187C"/>
<path d="M27.7566 57.0033C27.445 57.9344 27.3981 58.8989 27.5891 59.8115C27.8086 60.8563 28.3414 61.8308 29.154 62.6098L38.3611 71.5727C38.8051 72.0157 38.9961 72.6174 38.9006 73.2509L38.0427 78.2874L28.4553 73.2509C27.0261 72.4921 25.2802 72.4921 23.8208 73.2509L13.9787 78.4144C13.3119 78.7939 12.7405 78.4779 12.5495 78.3191C12.3283 78.1603 11.8525 77.7491 12.01 76.9886L13.8832 66.0298C14.1379 64.415 13.5984 62.7686 12.4238 61.6285L4.48684 53.8992C3.91548 53.361 4.04115 52.7274 4.13665 52.5068C4.20032 52.2527 4.48684 51.6827 5.24921 51.5557L16.2323 49.9727C17.8844 49.7186 19.2801 48.7057 20.0107 47.2481L24.9317 37.3039C25.2484 36.6069 25.8834 36.5433 26.1381 36.5433C26.3928 36.5433 27.0261 36.6069 27.3763 37.3039L28.5944 39.7661L32.2973 47.2481C33.0279 48.7057 34.4236 49.7186 36.0438 49.9727L45.3447 51.3033C45.1872 51.3668 45.0599 51.3986 44.9325 51.4303L32.2018 53.2674C30.1057 53.5833 28.3917 55.0091 27.7566 57.0033Z" fill="#593FC3"/>
<path d="M50.7617 49.5883V49.5916L49.567 52.0003L50.7617 49.5883Z" fill="#FF0871"/>
<path d="M61.2686 0.160034L53.4137 37.1167C52.8507 37.5914 52.3833 38.1882 52.0431 38.8869L51.3511 40.281L47.5359 47.9769L36.583 46.3939C36.1373 46.3304 35.7251 46.0445 35.5341 45.6651L32.8683 40.281L30.6147 35.721C30.3785 35.2212 30.0685 34.7782 29.6999 34.4021L33.0275 18.2715C36.6299 2.67741 47.5979 0.160034 60.3806 0.160034H61.2686Z" fill="#FF0871"/>
<path d="M69.8293 0.160034C69.3886 0.160034 68.9563 0.180093 68.529 0.215196L61.274 34.255C63.8258 35.6207 66.7413 36.3946 69.8343 36.3946C79.8607 36.3946 87.9887 28.2858 87.9887 18.2832C87.9887 8.28051 79.8624 0.173407 69.836 0.173407L69.8293 0.160034Z" fill="#FF0871"/>
</g>
<defs>
<clipPath id="clip0_1_507">
<rect width="113.038" height="92.1585" fill="white" transform="translate(0.439087 0.160034)"/>
</clipPath>
</defs>
</svg>
