<svg width="103" height="93" viewBox="0 0 103 93" fill="none" xmlns="http://www.w3.org/2000/svg">
<g clip-path="url(#clip0_1_498)">
<path d="M67.0839 1.18474C68.2356 1.60602 69.3891 2.02729 70.5408 2.45041C89.5756 9.42632 102.153 27.315 102.159 47.6062C102.159 50.5919 101.686 53.585 101.316 56.5597C101.064 58.5796 100.031 59.2051 98.0032 58.7875C87.6235 56.6461 77.2456 54.4993 66.8658 52.3543C62.6566 51.4841 58.4474 50.6177 54.2382 49.7438C52.1715 49.3152 51.591 48.445 52.0143 46.4122C55.0423 31.8938 58.0814 17.3791 61.0871 2.85697C61.3515 1.5821 61.9098 0.693555 63.2278 0.390015L67.0858 1.18658L67.0839 1.18474Z" fill="#FF0871"/>
<path d="M67.2852 55.202C72.0065 56.177 76.7259 57.1521 81.4472 58.1289C82.9353 58.4361 83.3586 59.1094 83.0037 60.5701C80.7706 69.7517 75.6944 76.9245 67.7067 82.0479C66.4533 82.8518 65.6474 82.6476 64.9745 81.3451C60.3863 72.4597 55.8018 63.5724 51.21 54.6906C50.8661 54.0247 50.6998 53.3734 51.2026 52.7351C51.6851 52.1243 52.3487 52.1114 53.0549 52.2586C57.7965 53.2447 62.5418 54.2215 67.2852 55.202Z" fill="#2C187C"/>
<path d="M57.6552 0.160034H56.2706C36.4742 0.160034 19.4895 4.04903 13.9086 28.1391L0.639526 92.3185C12.9067 92.2873 37.8274 92.3185 38.0085 92.3185L57.646 0.160034H57.6571H57.6552Z" fill="#593FC3"/>
</g>
<defs>
<clipPath id="clip0_1_498">
<rect width="101.518" height="92.1585" fill="white" transform="translate(0.639771 0.160034)"/>
</clipPath>
</defs>
</svg>
