<svg width="84" height="92" viewBox="0 0 84 92" fill="none" xmlns="http://www.w3.org/2000/svg">
<g clip-path="url(#clip0_1_666)">
<path d="M83.8784 38.0395C83.1028 47.3941 78.7315 55.8861 71.5671 61.9533C64.4026 68.0219 55.3051 70.936 45.9485 70.1606C45.027 70.0848 44.1113 69.9732 43.2241 69.8287C40.9047 69.4567 38.6167 68.8487 36.426 68.0219L35.8951 67.8216L35.3786 68.0591C35.2799 68.1048 35.1897 68.1392 35.101 68.1678L19.523 73.1405C19.1695 73.2535 18.6716 73.3165 18.3082 72.9746C17.9361 72.6255 17.8202 71.9546 18.0062 71.2235L21.5377 57.2652L21.1284 56.7416C15.6853 49.7632 13.0897 41.0609 13.8195 32.2399C13.8552 31.8121 13.8996 31.3801 13.9497 30.9538L15.0314 25.7006C15.1001 25.4059 15.1702 25.1112 15.2418 24.8208C20.0381 9.15153 35.3843 -1.23457 51.7493 0.118766C53.7984 0.289007 55.8316 0.635211 57.7948 1.15022C74.3201 5.47491 85.2907 20.9883 83.8784 38.0395Z" fill="#593FC3"/>
<path d="M42.5216 73.4724L38.5924 92C38.4049 92 12.6705 91.9671 0 92L10.0047 43.3856C10.2136 42.3685 11.6574 42.3642 11.8821 43.3785C13.0096 48.4471 15.1802 53.2581 18.3067 57.5184C18.477 57.7502 18.5371 58.0449 18.467 58.3239L15.372 70.5583C14.9384 72.2721 15.3405 73.9159 16.4466 74.9574C17.1448 75.6126 18.0306 75.9516 18.9878 75.9516C19.4314 75.9516 19.8907 75.8787 20.3529 75.7313L35.9266 70.76C35.9381 70.7557 35.9495 70.7529 35.961 70.7486C37.844 71.4281 39.79 71.9588 41.7603 72.3337C42.2898 72.4338 42.6346 72.9474 42.523 73.4738L42.5216 73.4724Z" fill="#FF0871"/>
</g>
<defs>
<clipPath id="clip0_1_666">
<rect width="84" height="92" fill="white"/>
</clipPath>
</defs>
</svg>
